<?xml version="1.0" standalone="no"?>
<!DOCTYPE svg PUBLIC "-//W3C//DTD SVG 20010904//EN"
 "http://www.w3.org/TR/2001/REC-SVG-20010904/DTD/svg10.dtd">
<svg version="1.0" xmlns="http://www.w3.org/2000/svg"
 width="570.000000pt" height="570.000000pt" viewBox="0 0 570.000000 570.000000"
 preserveAspectRatio="xMidYMid meet">
<metadata>
Created by potrace 1.11, written by Peter Selinger 2001-2013
</metadata>
<g transform="translate(0.000000,570.000000) scale(0.100000,-0.100000)"
fill="#f4976c" stroke="none">
<path d="M2894 5598 c-168 -164 -291 -290 -734 -748 -124 -129 -254 -263 -290
-300 -153 -157 -473 -496 -546 -579 -22 -24 -48 -53 -59 -65 -11 -13 -40 -46
-65 -76 -25 -29 -53 -62 -64 -74 -55 -63 -211 -263 -270 -346 -37 -52 -74
-103 -81 -112 -8 -10 -11 -18 -7 -18 4 0 2 -4 -3 -8 -25 -18 -127 -189 -208
-350 -31 -61 -57 -114 -57 -117 0 -3 -7 -22 -16 -43 -22 -51 -81 -229 -90
-272 -4 -19 -8 -37 -9 -40 -2 -5 -12 -58 -21 -105 -20 -109 -26 -470 -10 -595
4 -36 8 -73 8 -82 -1 -10 4 -20 9 -23 5 -4 7 -11 3 -16 -3 -6 1 -40 10 -77 9
-37 18 -76 20 -87 4 -28 17 -77 23 -95 3 -8 7 -19 8 -25 11 -43 86 -226 121
-293 46 -87 153 -254 201 -311 75 -92 180 -200 246 -254 22 -18 51 -42 65 -55
42 -35 199 -142 210 -142 6 0 12 -3 14 -7 7 -17 255 -134 313 -148 6 -1 17 -5
25 -8 27 -10 124 -35 165 -42 289 -49 465 29 465 208 0 112 -70 168 -322 258
-351 125 -471 189 -697 373 -67 54 -202 198 -250 266 -78 111 -165 294 -185
393 -10 48 -15 69 -20 85 -3 9 -8 33 -11 52 -2 19 -8 53 -12 75 -13 75 -7 490
7 490 1 0 3 9 5 21 8 38 33 129 45 159 6 17 11 30 10 30 -2 0 12 39 25 70 8
17 17 42 20 58 4 15 11 27 16 27 5 0 9 5 9 11 0 15 80 177 125 254 19 33 38
68 41 78 4 9 10 17 15 17 5 0 9 5 9 11 0 13 179 283 191 287 5 2 9 8 9 14 0 5
6 15 13 22 6 7 21 25 32 40 34 48 177 230 194 248 9 9 30 33 46 54 48 61 175
207 207 237 15 15 28 29 28 32 0 6 178 191 331 344 120 120 221 217 519 501
96 91 204 195 241 232 l67 67 129 -136 c70 -75 139 -148 152 -162 21 -22 198
-209 336 -355 22 -24 90 -96 150 -161 61 -65 129 -139 152 -163 23 -24 59 -64
80 -88 21 -24 54 -61 73 -83 19 -21 55 -62 80 -91 25 -29 57 -66 73 -84 42
-48 45 -52 155 -191 57 -71 111 -142 120 -157 9 -16 20 -28 24 -28 4 0 8 -6 8
-14 0 -8 3 -16 8 -18 4 -1 32 -41 63 -88 199 -302 308 -555 344 -800 8 -50 8
-323 1 -412 -11 -136 -29 -228 -68 -352 -61 -195 -148 -341 -344 -581 -71 -88
-284 -304 -284 -290 0 6 -4 3 -60 -46 -91 -81 -410 -270 -477 -284 -10 -2 -30
-8 -44 -13 -25 -10 -94 -24 -114 -24 -49 2 -104 28 -138 66 -25 28 -85 155
-91 192 -2 16 -5 29 -6 29 -10 0 -14 179 -6 245 8 61 17 124 22 155 3 17 7 41
9 55 4 22 15 81 30 150 8 38 19 94 20 105 1 6 3 12 4 15 3 5 6 21 14 60 4 21
24 106 43 183 2 9 6 27 9 40 2 12 7 34 11 49 3 15 6 31 6 35 0 5 5 19 10 33 5
14 11 32 13 40 2 8 11 47 20 85 10 39 18 77 20 85 2 8 4 16 5 18 2 1 3 5 4 10
15 64 31 126 43 162 8 25 17 56 19 70 3 14 12 49 21 79 8 29 17 61 18 70 2 9
4 16 5 16 1 0 3 7 5 15 6 26 74 263 85 297 6 18 13 40 15 50 2 10 20 80 39
156 30 114 51 247 48 292 -5 74 -26 116 -74 145 -25 15 -46 18 -102 15 -72 -3
-223 -39 -241 -56 -5 -5 -16 -9 -25 -9 -26 0 -97 -78 -104 -113 -6 -30 -2 -92
10 -144 2 -13 5 -25 5 -28 0 -2 5 -19 10 -37 5 -18 11 -44 14 -58 3 -14 7 -36
11 -50 3 -14 7 -64 9 -112 4 -140 -42 -287 -111 -347 -57 -50 -118 -63 -363
-76 -57 -3 -119 -8 -138 -11 -20 -3 -55 -7 -78 -9 -24 -1 -48 -5 -53 -9 -6 -3
-13 -2 -17 4 -4 6 -10 8 -15 5 -5 -3 -18 4 -29 17 -18 18 -20 31 -16 90 2 37
8 76 14 85 5 10 9 21 10 26 1 4 1 8 2 10 1 3 7 30 12 52 3 11 22 76 42 145 20
69 38 136 41 150 3 14 9 39 15 57 5 17 12 44 15 59 3 15 9 35 15 45 5 10 9 22
8 26 -1 4 -1 10 1 13 1 3 3 14 6 25 2 11 10 49 18 85 19 89 15 179 -10 213
-24 33 -105 78 -147 81 -74 6 -124 -42 -156 -151 -28 -96 -29 -99 -37 -148 -3
-22 -8 -43 -9 -46 -2 -3 -7 -28 -11 -55 -3 -27 -11 -58 -17 -69 -6 -11 -9 -21
-8 -23 2 -2 -9 -72 -14 -92 -1 -3 -5 -23 -10 -45 -5 -22 -10 -42 -10 -45 -1
-3 -7 -25 -14 -50 -7 -25 -14 -52 -16 -60 -8 -38 -71 -212 -101 -276 -40 -85
-110 -155 -172 -169 -9 -3 -35 -9 -57 -14 -103 -25 -225 -35 -405 -35 -85 0
-168 4 -185 7 -16 4 -45 10 -64 13 -18 3 -43 8 -55 10 -109 23 -128 18 -147
-38 -10 -30 -13 -89 -13 -199 2 -273 23 -306 161 -253 84 32 179 63 209 68 13
3 28 7 32 10 5 3 43 8 83 11 41 3 94 8 119 10 116 11 250 13 285 5 70 -16 77
-49 38 -177 -9 -32 -18 -60 -18 -63 -1 -3 -6 -16 -12 -30 -18 -41 -85 -214
-89 -230 -15 -62 -20 -87 -18 -100 0 -8 2 -25 2 -36 4 -49 171 -173 227 -169
56 5 111 55 147 135 15 32 54 152 63 190 2 8 8 35 14 60 7 25 14 59 16 75 3
17 14 64 25 105 11 41 23 84 25 94 16 71 79 156 135 183 60 30 214 47 402 45
92 -1 114 -4 148 -23 22 -12 43 -34 48 -48 11 -34 7 -127 -9 -182 -7 -24 -13
-48 -15 -54 -1 -5 -12 -44 -24 -85 -12 -41 -23 -79 -24 -85 -1 -5 -9 -30 -16
-55 -7 -25 -14 -49 -16 -55 -1 -5 -20 -77 -42 -160 -22 -82 -44 -163 -48 -180
-4 -16 -8 -32 -9 -35 0 -3 -4 -14 -8 -25 -3 -11 -8 -32 -11 -47 -2 -14 -18
-76 -36 -137 -17 -61 -33 -119 -35 -128 -2 -10 -13 -58 -25 -108 -27 -113 -29
-122 -36 -165 -3 -19 -9 -53 -13 -75 -16 -90 5 -275 32 -275 5 0 6 -4 2 -9 -3
-6 13 -28 36 -50 65 -62 151 -85 314 -86 141 0 208 6 310 29 6 1 26 6 45 10
19 4 46 11 60 16 14 5 52 16 85 26 140 41 469 188 549 247 6 4 56 37 111 73
164 109 234 167 378 310 94 94 137 142 137 155 0 5 4 9 9 9 5 0 42 42 82 93
41 50 76 94 80 97 22 18 128 184 172 271 45 87 102 230 99 249 0 3 3 10 8 15
4 6 14 37 21 70 7 33 14 65 15 70 13 60 33 188 40 260 3 28 7 64 10 80 10 60
12 371 3 420 -6 28 -13 66 -16 85 -9 61 -10 65 -15 80 -3 8 -12 35 -19 60 -7
25 -13 47 -14 50 -1 3 -7 18 -13 33 -7 16 -12 32 -12 36 0 5 -8 26 -17 47 -9
22 -17 41 -18 44 -11 39 -139 293 -166 331 -10 15 -19 32 -19 38 0 6 -4 11
-10 11 -5 0 -10 5 -10 10 0 12 -52 94 -62 98 -5 2 -8 8 -8 13 0 14 -163 246
-267 379 -28 36 -250 307 -270 330 -12 14 -30 34 -40 46 -62 72 -142 161 -163
184 -14 14 -38 41 -54 60 -15 19 -65 75 -110 124 -90 99 -119 130 -179 197
-121 133 -225 246 -252 274 -16 18 -46 50 -65 72 -35 40 -207 227 -245 267
-11 12 -82 90 -158 174 l-138 153 -105 -103z"/>
</g>
</svg>
