<?xml version="1.0" encoding="utf-8"?>
<!-- Generator: Adobe Illustrator 28.0.0, SVG Export Plug-In . SVG Version: 6.00 Build 0)  -->
<svg version="1.1" id="Layer_1" xmlns="http://www.w3.org/2000/svg" xmlns:xlink="http://www.w3.org/1999/xlink" x="0px" y="0px"
	 viewBox="0 0 1440 1" style="enable-background:new 0 0 1440 1;" xml:space="preserve">
<style type="text/css">
	.st0{fill:#2C2C2C;}
</style>
<g>
	<rect x="472" y="0.1" class="st0" width="3" height="0.8"/>
	<rect x="480" y="0.1" class="st0" width="3" height="0.8"/>
	<rect x="464" y="0.1" class="st0" width="3" height="0.8"/>
	<rect x="448" y="0.1" class="st0" width="3" height="0.8"/>
	<rect x="456" y="0.1" class="st0" width="3" height="0.8"/>
	<rect x="488" y="0.1" class="st0" width="3" height="0.8"/>
	<rect x="512" y="0.1" class="st0" width="3" height="0.8"/>
	<rect x="440" y="0.1" class="st0" width="3" height="0.8"/>
	<rect x="520" y="0.1" class="st0" width="3" height="0.8"/>
	<rect x="504" y="0.1" class="st0" width="3" height="0.8"/>
	<rect x="496" y="0.1" class="st0" width="3" height="0.8"/>
	<rect x="432" y="0.1" class="st0" width="3" height="0.8"/>
	<rect x="384" y="0.1" class="st0" width="3" height="0.8"/>
	<rect x="376" y="0.1" class="st0" width="3" height="0.8"/>
	<rect x="360" y="0.1" class="st0" width="3" height="0.8"/>
	<rect x="368" y="0.1" class="st0" width="3" height="0.8"/>
	<rect x="392" y="0.1" class="st0" width="3" height="0.8"/>
	<rect x="416" y="0.1" class="st0" width="3" height="0.8"/>
	<rect x="528" y="0.1" class="st0" width="3" height="0.8"/>
	<rect x="424" y="0.1" class="st0" width="3" height="0.8"/>
	<rect x="400" y="0.1" class="st0" width="3" height="0.8"/>
	<rect x="408" y="0.1" class="st0" width="3" height="0.8"/>
	<rect x="600" y="0.1" class="st0" width="3" height="0.8"/>
	<rect x="536" y="0.1" class="st0" width="3" height="0.8"/>
	<rect x="640" y="0.1" class="st0" width="3" height="0.8"/>
	<rect x="632" y="0.1" class="st0" width="3" height="0.8"/>
	<rect x="656" y="0.1" class="st0" width="3" height="0.8"/>
	<rect x="624" y="0.1" class="st0" width="3" height="0.8"/>
	<rect x="616" y="0.1" class="st0" width="3" height="0.8"/>
	<rect x="688" y="0.1" class="st0" width="3" height="0.8"/>
	<rect x="696" y="0.1" class="st0" width="3" height="0.8"/>
	<rect x="672" y="0.1" class="st0" width="3" height="0.8"/>
	<rect x="664" y="0.1" class="st0" width="3" height="0.8"/>
	<rect x="680" y="0.1" class="st0" width="3" height="0.8"/>
	<rect x="648" y="0.1" class="st0" width="3" height="0.8"/>
	<rect x="568" y="0.1" class="st0" width="3" height="0.8"/>
	<rect x="560" y="0.1" class="st0" width="3" height="0.8"/>
	<rect x="552" y="0.1" class="st0" width="3" height="0.8"/>
	<rect x="544" y="0.1" class="st0" width="3" height="0.8"/>
	<rect x="576" y="0.1" class="st0" width="3" height="0.8"/>
	<rect x="592" y="0.1" class="st0" width="3" height="0.8"/>
	<rect x="704" y="0.1" class="st0" width="3" height="0.8"/>
	<rect x="352" y="0.1" class="st0" width="3" height="0.8"/>
	<rect x="584" y="0.1" class="st0" width="3" height="0.8"/>
	<rect x="608" y="0.1" class="st0" width="3" height="0.8"/>
	<rect x="128" y="0.1" class="st0" width="3" height="0.8"/>
	<rect x="104" y="0.1" class="st0" width="3" height="0.8"/>
	<rect x="120" y="0.1" class="st0" width="3" height="0.8"/>
	<rect x="344" y="0.1" class="st0" width="3" height="0.8"/>
	<rect x="88" y="0.1" class="st0" width="3" height="0.8"/>
	<rect x="96" y="0.1" class="st0" width="3" height="0.8"/>
	<rect x="80" y="0.1" class="st0" width="3" height="0.8"/>
	<rect x="152" y="0.1" class="st0" width="3" height="0.8"/>
	<rect x="160" y="0.1" class="st0" width="3" height="0.8"/>
	<rect x="136" y="0.1" class="st0" width="3" height="0.8"/>
	<rect x="144" y="0.1" class="st0" width="3" height="0.8"/>
	<rect x="712" y="0.1" class="st0" width="3" height="0.8"/>
	<rect x="8" y="0.1" class="st0" width="3" height="0.8"/>
	<rect x="72" y="0.1" class="st0" width="3" height="0.8"/>
	<rect x="32" y="0.1" class="st0" width="3" height="0.8"/>
	<rect x="24" y="0.1" class="st0" width="3" height="0.8"/>
	<rect y="0.1" class="st0" width="3" height="0.8"/>
	<rect x="168" y="0.1" class="st0" width="3" height="0.8"/>
	<rect x="16" y="0.1" class="st0" width="3" height="0.8"/>
	<rect x="40" y="0.1" class="st0" width="3" height="0.8"/>
	<rect x="56" y="0.1" class="st0" width="3" height="0.8"/>
	<rect x="64" y="0.1" class="st0" width="3" height="0.8"/>
	<rect x="48" y="0.1" class="st0" width="3" height="0.8"/>
	<rect x="112" y="0.1" class="st0" width="3" height="0.8"/>
	<rect x="288" y="0.1" class="st0" width="3" height="0.8"/>
	<rect x="296" y="0.1" class="st0" width="3" height="0.8"/>
	<rect x="264" y="0.1" class="st0" width="3" height="0.8"/>
	<rect x="304" y="0.1" class="st0" width="3" height="0.8"/>
	<rect x="280" y="0.1" class="st0" width="3" height="0.8"/>
	<rect x="272" y="0.1" class="st0" width="3" height="0.8"/>
	<rect x="336" y="0.1" class="st0" width="3" height="0.8"/>
	<rect x="328" y="0.1" class="st0" width="3" height="0.8"/>
	<rect x="312" y="0.1" class="st0" width="3" height="0.8"/>
	<rect x="320" y="0.1" class="st0" width="3" height="0.8"/>
	<rect x="224" y="0.1" class="st0" width="3" height="0.8"/>
	<rect x="200" y="0.1" class="st0" width="3" height="0.8"/>
	<rect x="208" y="0.1" class="st0" width="3" height="0.8"/>
	<rect x="192" y="0.1" class="st0" width="3" height="0.8"/>
	<rect x="216" y="0.1" class="st0" width="3" height="0.8"/>
	<rect x="184" y="0.1" class="st0" width="3" height="0.8"/>
	<rect x="176" y="0.1" class="st0" width="3" height="0.8"/>
	<rect x="248" y="0.1" class="st0" width="3" height="0.8"/>
	<rect x="240" y="0.1" class="st0" width="3" height="0.8"/>
	<rect x="232" y="0.1" class="st0" width="3" height="0.8"/>
	<rect x="256" y="0.1" class="st0" width="3" height="0.8"/>
	<rect x="1320" y="0.1" class="st0" width="3" height="0.8"/>
	<rect x="1200" y="0.1" class="st0" width="3" height="0.8"/>
	<rect x="1192" y="0.1" class="st0" width="3" height="0.8"/>
	<rect x="1176" y="0.1" class="st0" width="3" height="0.8"/>
	<rect x="1184" y="0.1" class="st0" width="3" height="0.8"/>
	<rect x="1256" y="0.1" class="st0" width="3" height="0.8"/>
	<rect x="1168" y="0.1" class="st0" width="3" height="0.8"/>
	<rect x="1248" y="0.1" class="st0" width="3" height="0.8"/>
	<rect x="1240" y="0.1" class="st0" width="3" height="0.8"/>
	<rect x="1232" y="0.1" class="st0" width="3" height="0.8"/>
	<rect x="1224" y="0.1" class="st0" width="3" height="0.8"/>
	<rect x="1216" y="0.1" class="st0" width="3" height="0.8"/>
	<rect x="1208" y="0.1" class="st0" width="3" height="0.8"/>
	<rect x="1112" y="0.1" class="st0" width="3" height="0.8"/>
	<rect x="1104" y="0.1" class="st0" width="3" height="0.8"/>
	<rect x="1120" y="0.1" class="st0" width="3" height="0.8"/>
	<rect x="1096" y="0.1" class="st0" width="3" height="0.8"/>
	<rect x="1088" y="0.1" class="st0" width="3" height="0.8"/>
	<rect x="1128" y="0.1" class="st0" width="3" height="0.8"/>
	<rect x="1152" y="0.1" class="st0" width="3" height="0.8"/>
	<rect x="1160" y="0.1" class="st0" width="3" height="0.8"/>
	<rect x="1144" y="0.1" class="st0" width="3" height="0.8"/>
	<rect x="1136" y="0.1" class="st0" width="3" height="0.8"/>
	<rect x="1352" y="0.1" class="st0" width="3" height="0.8"/>
	<rect x="1264" y="0.1" class="st0" width="3" height="0.8"/>
	<rect x="1384" y="0.1" class="st0" width="3" height="0.8"/>
	<rect x="1392" y="0.1" class="st0" width="3" height="0.8"/>
	<rect x="1360" y="0.1" class="st0" width="3" height="0.8"/>
	<rect x="1376" y="0.1" class="st0" width="3" height="0.8"/>
	<rect x="1368" y="0.1" class="st0" width="3" height="0.8"/>
	<rect x="1424" y="0.1" class="st0" width="3" height="0.8"/>
	<rect x="1408" y="0.1" class="st0" width="3" height="0.8"/>
	<rect x="1432" y="0.1" class="st0" width="3" height="0.8"/>
	<rect x="1416" y="0.1" class="st0" width="3" height="0.8"/>
	<rect x="1400" y="0.1" class="st0" width="3" height="0.8"/>
	<rect x="1288" y="0.1" class="st0" width="3" height="0.8"/>
	<rect x="1296" y="0.1" class="st0" width="3" height="0.8"/>
	<rect x="1272" y="0.1" class="st0" width="3" height="0.8"/>
	<rect x="1304" y="0.1" class="st0" width="3" height="0.8"/>
	<rect x="1280" y="0.1" class="st0" width="3" height="0.8"/>
	<rect x="1336" y="0.1" class="st0" width="3" height="0.8"/>
	<rect x="1080" y="0.1" class="st0" width="3" height="0.8"/>
	<rect x="1344" y="0.1" class="st0" width="3" height="0.8"/>
	<rect x="1328" y="0.1" class="st0" width="3" height="0.8"/>
	<rect x="1312" y="0.1" class="st0" width="3" height="0.8"/>
	<rect x="920" y="0.1" class="st0" width="3" height="0.8"/>
	<rect x="840" y="0.1" class="st0" width="3" height="0.8"/>
	<rect x="832" y="0.1" class="st0" width="3" height="0.8"/>
	<rect x="848" y="0.1" class="st0" width="3" height="0.8"/>
	<rect x="824" y="0.1" class="st0" width="3" height="0.8"/>
	<rect x="808" y="0.1" class="st0" width="3" height="0.8"/>
	<rect x="816" y="0.1" class="st0" width="3" height="0.8"/>
	<rect x="896" y="0.1" class="st0" width="3" height="0.8"/>
	<rect x="880" y="0.1" class="st0" width="3" height="0.8"/>
	<rect x="872" y="0.1" class="st0" width="3" height="0.8"/>
	<rect x="856" y="0.1" class="st0" width="3" height="0.8"/>
	<rect x="864" y="0.1" class="st0" width="3" height="0.8"/>
	<rect x="888" y="0.1" class="st0" width="3" height="0.8"/>
	<rect x="800" y="0.1" class="st0" width="3" height="0.8"/>
	<rect x="760" y="0.1" class="st0" width="3" height="0.8"/>
	<rect x="1072" y="0.1" class="st0" width="3" height="0.8"/>
	<rect x="728" y="0.1" class="st0" width="3" height="0.8"/>
	<rect x="736" y="0.1" class="st0" width="3" height="0.8"/>
	<rect x="752" y="0.1" class="st0" width="3" height="0.8"/>
	<rect x="768" y="0.1" class="st0" width="3" height="0.8"/>
	<rect x="784" y="0.1" class="st0" width="3" height="0.8"/>
	<rect x="792" y="0.1" class="st0" width="3" height="0.8"/>
	<rect x="776" y="0.1" class="st0" width="3" height="0.8"/>
	<rect x="744" y="0.1" class="st0" width="3" height="0.8"/>
	<rect x="1024" y="0.1" class="st0" width="3" height="0.8"/>
	<rect x="1032" y="0.1" class="st0" width="3" height="0.8"/>
	<rect x="1016" y="0.1" class="st0" width="3" height="0.8"/>
	<rect x="904" y="0.1" class="st0" width="3" height="0.8"/>
	<rect x="1000" y="0.1" class="st0" width="3" height="0.8"/>
	<rect x="1056" y="0.1" class="st0" width="3" height="0.8"/>
	<rect x="1040" y="0.1" class="st0" width="3" height="0.8"/>
	<rect x="992" y="0.1" class="st0" width="3" height="0.8"/>
	<rect x="1064" y="0.1" class="st0" width="3" height="0.8"/>
	<rect x="1048" y="0.1" class="st0" width="3" height="0.8"/>
	<rect x="1008" y="0.1" class="st0" width="3" height="0.8"/>
	<rect x="984" y="0.1" class="st0" width="3" height="0.8"/>
	<rect x="944" y="0.1" class="st0" width="3" height="0.8"/>
	<rect x="928" y="0.1" class="st0" width="3" height="0.8"/>
	<rect x="912" y="0.1" class="st0" width="3" height="0.8"/>
	<rect x="720" y="0.1" class="st0" width="3" height="0.8"/>
	<rect x="936" y="0.1" class="st0" width="3" height="0.8"/>
	<rect x="976" y="0.1" class="st0" width="3" height="0.8"/>
	<rect x="968" y="0.1" class="st0" width="3" height="0.8"/>
	<rect x="952" y="0.1" class="st0" width="3" height="0.8"/>
	<rect x="960" y="0.1" class="st0" width="3" height="0.8"/>
</g>
</svg>
