<?xml version="1.0" encoding="utf-8"?>
<!-- Generator: Adobe Illustrator 27.9.0, SVG Export Plug-In . SVG Version: 6.00 Build 0)  -->
<svg version="1.1" id="Layer_1" xmlns="http://www.w3.org/2000/svg" xmlns:xlink="http://www.w3.org/1999/xlink" x="0px" y="0px"
	 viewBox="0 0 50 57" style="enable-background:new 0 0 50 57;" xml:space="preserve">
<style type="text/css">
	.st0{opacity:0.6;}
	.st1{fill:#F2F4ED;}
</style>
<g>
	<g class="st0">
		<path class="st1" d="M16.15,39.79c1.39-3.06,0.03-3.08-3.02-2.76c-0.64,0.07-1.3,0.19-2.07,0.38c-3.83,0.92-3.68,1.37-3.88-1.64
			c-0.2-3.14,0.2-2.69,1.71-2.51c1.46,0.17,6.62,0.59,8.03-0.41c1.41-1.01,2.59-4.82,3.68-10.45c0.45-2.31,1.96-1.71,2.73-1.15
			c0.35,0.25,0.51,0.67,0.5,1.1c-0.02,0.81-0.26,2.42-0.91,4.7c0,0-1.59,4.12-1.09,5.19c0.49,1.07,6.4-0.21,6.9-0.6
			c0.9-0.7,1.9-2.12,0.8-6.11c0,0-1.12-2.55,1.85-3.17c2.33-0.49,2.79-0.35,3.09,0.13c0.2,0.32,0.3,0.69,0.32,1.07
			c0.1,1.75-0.82,4.35-1.26,6.06c-0.5,1.92-4.3,14.62-4.1,18.71c0.14,2.97,1.3,3.68,2.18,3.81c0.38,0.06,1.05-0.07,1.42-0.21
			c1.93-0.73,5.36-2.15,8.88-6.59c3.81-4.8,6.91-12.39-0.21-22C34.35,13.42,26.28,5.2,26.28,5.2S14.18,17.24,9.76,23.44
			C5.33,29.63-0.09,39.05,8.7,47.45c3.83,3.67,9.13,3.97,10.17,5.53c0.64,0.96,0.77,3.35-2.98,3.29c-3.75-0.05-10.01-3.17-13.18-8.9
			c-3.17-5.74-3.82-13.56-0.24-20.09c3.57-6.53,12.92-16,16.34-19.46C22.23,4.35,26.27,0,26.27,0s13.62,14.73,14.03,15.24
			c0.41,0.5,9.49,10.11,9.65,18.5c0.16,8.39-3.25,13.59-10.59,19.18c-7.34,5.59-13.64,3.86-13.79,3.73
			c-0.15-0.13-3.56,0.04-0.35-9.39c3.2-9.43,2.7-10.61,1.65-10.87c-1.05-0.26-3.48-0.21-4.76,0.16c-1.28,0.37-1.56,0.95-2.21,3.4
			c-1.12,4.22-1.38,5.94-3.18,4.97C15.16,44.09,14.97,42.37,16.15,39.79L16.15,39.79z"/>
	</g>
</g>
<text transform="matrix(1 0 0 1 960 539.5)"><tspan x="0" y="0" style="font-family:'MyriadPro-Regular'; font-size:12px;">float halfway_delta[4];</tspan><tspan x="0" y="14.4" style="font-family:'MyriadPro-Regular'; font-size:12px;">float halfway[3];</tspan><tspan x="0" y="28.8" style="font-family:'MyriadPro-Regular'; font-size:12px;">for(int8_t i = 0; i &lt; 3; i++){</tspan><tspan x="0" y="43.2" style="font-family:'MyriadPro-Regular'; font-size:12px;">halfway[i] = current_position[i] + 0.5*difference[i];</tspan><tspan x="0" y="57.6" style="font-family:'MyriadPro-Regular'; font-size:12px;">}</tspan><tspan x="0" y="72" style="font-family:'MyriadPro-Regular'; font-size:12px;">calculate_delta(halfway, halfway_delta);</tspan><tspan x="0" y="86.4" style="font-family:'MyriadPro-Regular'; font-size:12px;">update_axis_steps_per_unit(delta, halfway_delta);</tspan></text>
</svg>
