<?xml version="1.0" encoding="utf-8"?>
<!-- Generator: Adobe Illustrator 27.9.0, SVG Export Plug-In . SVG Version: 6.00 Build 0)  -->
<svg version="1.1" id="Layer_1" xmlns="http://www.w3.org/2000/svg" xmlns:xlink="http://www.w3.org/1999/xlink" x="0px" y="0px"
	 viewBox="0 0 161 15" style="enable-background:new 0 0 161 15;" xml:space="preserve">
<style type="text/css">
	.st0{fill:#2C2C2C;}
</style>
<g>
	<g>
		<path class="st0" d="M3.45,8.48L2.67,9.23v5.42H0V0.35h2.67v5.02l0.78,0.75h5.39l0.78-0.75V0.35h2.67v14.3H9.63V9.23L8.84,8.48
			H3.45z"/>
		<path class="st0" d="M28.44,14.65h-2.88l-1.49-3.89h-6.38l-1.49,3.89h-2.83l5.84-14.3h3.43L28.44,14.65z M18.74,8.1l0.47,0.45
			h3.32l0.5-0.48l-1.75-4.54h-0.78L18.74,8.1z"/>
		<path class="st0" d="M41.81,0.35v14.3h-3.06L32.79,4.31H32v10.33h-2.49V0.35h3.61l5.42,9.56h0.78V0.35H41.81z"/>
		<path class="st0" d="M56.62,14.65h-2.54V13.8l-0.42-0.25C52.8,14.47,51.52,15,50.19,15c-1.91,0-3.48-0.7-4.71-2.13
			c-1.23-1.43-1.86-3.21-1.86-5.37s0.68-3.94,2.01-5.37C46.97,0.7,48.64,0,50.63,0c2.7,0,4.58,1.15,6.15,3.76l-2.2,1.61
			c-1.33-2.08-2.49-2.86-3.98-2.86c-2.59,0-4.16,1.96-4.16,4.99c0,3.04,1.6,5.07,4.19,5.07c1.05,0,2.07-0.53,3.45-1.93V9.11h-3.85
			V6.9h6.38V14.65z"/>
		<path class="st0" d="M66.04,9.16h-3.56v5.49h-2.67V0.35h6.23c3.87,0,6.04,1.61,6.04,4.41C72.09,7.58,69.94,9.16,66.04,9.16z
			 M62.48,3.46V6.8h3.51c2.2,0,3.35-0.7,3.35-2.03s-1.15-2.06-3.35-2.06h-2.72L62.48,3.46z"/>
		<path class="st0" d="M79.86,9.16h-2.93v5.49h-2.67V0.35h6.23c3.87,0,6.04,1.61,6.04,4.41c0,2.08-1.15,3.49-3.32,4.06v0.58l4,5.24
			h-3.19L79.86,9.16z M80.43,2.71h-2.72l-0.78,0.75V6.8h3.51c2.2,0,3.35-0.7,3.35-2.03S82.63,2.71,80.43,2.71z"/>
		<path class="st0" d="M96,3.46v8.08l0.79,0.75h3.3v2.36H89.3v-2.36h3.3l0.78-0.75V3.46L92.6,2.71h-3.3V0.35h10.78v2.36h-3.3
			L96,3.46z"/>
		<path class="st0" d="M115.6,0.35v14.3h-3.06l-5.97-10.33h-0.78v10.33h-2.49V0.35h3.61l5.42,9.56h0.78V0.35H115.6z"/>
		<path class="st0" d="M131.17,2.71h-4.81l-0.79,0.75v11.19h-2.72V3.46l-0.78-0.75h-4.82V0.35h13.92V2.71z"/>
		<path class="st0" d="M135.93,8.48v3.06l0.79,0.75h8.63v2.36h-12.06V0.35h11.8v2.36h-8.37l-0.79,0.75v2.66h8.01v2.36H135.93z"/>
		<path class="st0" d="M153.65,9.16h-2.93v5.49h-2.67V0.35h6.23c3.87,0,6.05,1.61,6.05,4.41c0,2.08-1.15,3.49-3.32,4.06v0.58l4,5.24
			h-3.19L153.65,9.16z M154.22,2.71h-2.72l-0.79,0.75V6.8h3.51c2.2,0,3.35-0.7,3.35-2.03S156.42,2.71,154.22,2.71z"/>
	</g>
</g>
</svg>
